<?xml version="1.0" encoding="utf-8"?>
<!-- Generator: Adobe Illustrator 23.0.5, SVG Export Plug-In . SVG Version: 6.00 Build 0)  -->
<svg version="1.0" id="Layer_1" xmlns="http://www.w3.org/2000/svg" xmlns:xlink="http://www.w3.org/1999/xlink" x="0px" y="0px"
	 viewBox="0 0 800 800" style="enable-background:new 0 0 800 800;" xml:space="preserve">
<style type="text/css">
	.st0{fill:#FF0000;}
</style>
<g>
	<path d="M393.4022827,135.9225464c3.6863098-7.4218903,8.2801514-16.6517334,18.5793762-18.8466721
		c12.1071167-2.58181,26.7396545,8.0901794,30.4261169,12.0508499l0.2179565,0.239212l21.0555115-16.3773575l0.2110901-0.1617889
		l-0.0984192-0.2531586c-0.0913696-0.2111282-2.1527405-5.2130051-4.4813232-6.1345749
		c-0.5344849-0.2040024-1.0411682-0.1968689-1.5195007,0.0212097c-2.4483032,1.1254883-13.5774536,9.5463257-15.4838867,10.9955673
		c-1.8923645-2.1034851-15.596405-16.4055252-33.1274109-10.404747
		c-15.2027588,5.1988297-20.7391663,17.8336792-23.7149353,24.6222839c-0.7175598,1.6391602-1.287262,2.9335938-1.7867126,3.6441345
		c-1.3228455,1.8853607-7.9143066,12.043808-13.8167114,21.702774
		c-11.7976074,19.3249512-10.8055725,20.1058502-10.3274231,20.485733c0.8936157,0.7106171,10.4891968,0.907486,21.062561,0.907486
		c12.4028625,0,26.1489868-0.2743225,28.7800293-0.3306274c0.1688538,0.0140839,16.8768311,0.7808685,24.3337402-10.9182281
		c5.7687988-9.0397949,6.8872375-20.485733,2.8493652-29.1668243c-3.9959717-8.5825958-13.0218506-13.6406708-22.462677-12.5996017
		c-9.0961304,1.0130386-14.1543884,8.3997269-17.1510925,13.8377151c-3.0743713,4.3476257-3.6229248,10.2147369-1.414032,15.322113
		c2.166626,5.0088654,6.4650574,8.3082581,11.8046265,9.0539551c6.7325134,0.9356689,10.5524292-1.146698,12.5643311-3.0601807
		c2.3708496-2.2510986,3.0532227-4.9455719,2.9125366-6.5706482c-0.2251587-2.5888519-1.5265198-6.507309-4.2000122-6.6620636
		c-1.2098083-0.0633392-2.3495483,0.8371582-2.6308899,2.1034393c-0.4080811,1.8432312-1.4423523,5.1003265-3.7426147,6.1414948
		c-1.2592773,0.5698242-2.7719116,0.3869019-4.4811707-0.5487061c-2.7366943-1.4984436-3.9046021-4.5867157-3.2220459-8.4841309
		c0.8441467-4.8470917,4.8329163-10.4820862,10.5382996-11.3614502c4.3616333-0.6753693,8.2870178,0.4220886,11.0659485,3.1023865
		c3.4049683,3.2712708,4.861084,8.6390228,4.1084595,15.0970001c-0.5628052,4.854126-3.4753723,9.0750885-8.1958008,11.9031067
		c-6.4932251,3.8903809-15.2798462,4.586792-22.3781738,1.779892c-4.4813232-1.7728577-7.7312012-5.1003265-9.384491-9.6379089
		c-2.3356628-6.3877411-1.0693359-13.5493011,1.2239075-17.8054352
		C392.1359558,138.4550629,392.7479248,137.2239532,393.4022827,135.9225464z M367.5418701,172.1947174l11.5794678-16.1593475
		c1.9066162,7.0139313,6.0078735,14.337204,7.1828003,16.3562164
		C381.1756592,172.3493805,370.2642822,172.2579346,367.5418701,172.1947174z"/>
	<path d="M393.1700745,74.0643005c11.2349548,1.6039429,55.9770508,1.8431473,59.4029846,1.2029495
		c3.2290955-0.5979538,38.1294861,2.293396,40.4367981,3.0039291l0.4432983,0.1407471l0.0140686-0.4713669
		c0.4151306-20.9007301,1.4070129-61.0139999,2.1879578-63.2018585l0.1545715-0.4291639l-0.4572144-0.0351658
		c-0.3658142-0.0351667-9.3212891-0.710536-22.138916,8.5052576c-12.2970581,8.8358383-55.4353333,38.0519562-58.6994629,40.2608948
		L338.0585022,14l-6.3948364,58.270401l-0.0420837,0.3939514l0.3938293-0.0070419
		C332.507843,72.6573105,382.0620728,72.4744797,393.1700745,74.0643005z"/>
	<path d="M436.7726135,443.5744019c0.2322083-0.745697-0.1827393-1.5336304-0.9216309-1.765686
		c-42.7792969-13.4579468-83.3217468,1.2802734-83.7226257,1.4279785c-0.7316589,0.274353-1.1045227,1.0834045-0.8302307,1.8079834
		c0.2110901,0.5698242,0.7457275,0.9215698,1.3156128,0.9215698c0.1618042,0,0.3306274-0.0281372,0.4924011-0.0914612
		c0.3940125-0.1477051,40.0359497-14.5552673,81.9008789-1.3788147
		C435.7455444,444.7280884,436.5335388,444.3131409,436.7726135,443.5744019z"/>
	<path d="M417.2719727,460.3597412c-4.5517578-0.1477356-42.2941284,0-42.6740417,0h-0.4080811l0.0633545,0.4080505
		c0.4151306,2.6873474,2.03302,4.8822327,4.8119812,6.5213623c4.1646118,2.4481812,10.4749451,3.3556824,16.7007446,3.3556824
		c6.8168335,0,13.5213013-1.0903931,17.1723938-2.4411316c4.9876709-1.8501892,7.900238-4.1647034,7.5975952-6.0430298
		C420.3600464,461.0773315,419.1713562,460.4230652,417.2719727,460.3597412z"/>
	<path d="M400.6481323,414.0628967c7.3375854,0,16.4900208-10.9112549,20.7180481-18.7833557
		c1.9768372-3.6863098,2.5395203-6.7113342,1.7164612-9.2368774c-0.802063-2.4552002-2.898468-4.4320068-6.5986633-6.2188721
		c-3.4261169-1.6532288-7.9776917-0.9075317-13.5422668,2.2301636c-0.2181396,0.1265259-0.3799133,0.2179871-0.4572144,0.2531433
		c-0.33078,0.0563965-5.7897339,0.9637756-9.440979,0.2954712c-2.0048523-0.3657837-3.9607849-1.421051-5.8459167-2.434082
		c-1.7096252-0.9285278-3.3206482-1.8009338-4.9526367-2.1808472c-2.4692688-0.5908508-10.6509705,3.032074-15.65271,6.9083252
		c-2.6734924,2.0682678-4.045105,3.8833008-4.0804749,5.3818359c-0.1054688,5.1635132,31.0804749,23.489563,37.8268738,23.7779846
		C400.4442749,414.0628967,400.5426941,414.0628967,400.6481323,414.0628967z M412.9664917,388.5470886
		c-2.8632507,1.9697876-6.1627808,0.5627747-7.2953186-0.0351563
		C409.0268555,385.6487122,412.0307922,387.7380981,412.9664917,388.5470886z M377.1655884,388.1813049
		c-0.1968079-0.4854126-0.0422363-0.7105408,0.0845032-0.8371582c0.2954407-0.2884521,0.9003296-0.4291687,1.6319885-0.4291687
		c0.8652954,0,1.8995667,0.1970825,2.8139954,0.5768738c0.6191406,0.2602844,2.0050049,0.9708252,2.2019958,2.1456604
		C382.6810608,389.8626099,378.1013184,390.559082,377.1655884,388.1813049z"/>
	<path d="M264.0719299,274.0042419l-0.2179565,0.1970825c-0.0563354,0.0491638-1.3789673,1.2661743-1.3789673,2.6168823
		c0,0.5768738,0.2392273,1.0904541,0.7105103,1.5195618l0.2110901,0.1899109
		c7.2742004,6.5987854,8.1183472,8.6460266,7.9776917,9.2720947c-0.1477051,0.6260681-1.0130005,0.7597351-2.3074951,0.8934021
		c-1.0622864,0.1056519-2.0611877,0.2110596-2.5606384,0.8371582c-0.2322083,0.2884827-0.3237305,0.6612854-0.267395,1.1044922
		c0.0351868,0.2884521,0.0633545,0.5628052,0.0915222,0.8161011c0.1054688,1.0974426,0.1897888,1.892395,0.7948608,2.2159729
		c0.534668,0.2744446,1.294342,0.0844116,2.6451416-0.6542664c1.9064636-1.0480957,9.8700562-1.4350891,19.0857239-1.8852539
		c4.9878235-0.2463074,10.6369019-0.5206604,16.2014771-0.9357605c9.0681152-0.6823425,18.1221619-1.5124817,24.8474426-2.2863464
		c13.028717-1.491394,13.1130371-2.2511902,13.1623535-2.7013855c0.0211182-0.196991-0.0281677-0.4995117-0.3728943-0.8019104
		c-1.3015137-1.1326904-6.5986633-1.8151245-10.32724-1.0342407c-0.0140686-2.0823059-0.0843201-10.6930847-0.745575-14.2597961
		c2.5395203,1.3929138,11.5161133,6.4229126,15.0687866,9.9755859c4.256012,4.256073,4.5654907,10.4819946,0.8439941,17.0667114
		c-3.988739,7.0489807-23.1096802,37.4469604-26.3597107,42.1814575
		c-2.828064,4.1013794-20.0777588,29.8703613-25.2976074,37.6721191c-0.3517456,0.5205994-0.387146,1.1677856-0.0915527,1.7235413
		c0.2954102,0.5557861,0.8652954,0.8934631,1.491333,0.8934631c0.5276184,0,1.0342712-0.2462158,1.3507996-0.668335
		c7.0349426-9.3001709,68.8580627-91.299408,72.016571-105.678833c3.3908997-15.4065247-28.477417-31.6149902-34.0067749-33.275238
		c-1.6110229-0.4784088-2.5256042-1.0834045-2.4553528-1.6110229c0.1337891-1.0411072,3.6723938-2.6029358,11.1081848-2.8210144
		l2.3708496-0.0773773c66.5646667-2.1385956,110.4134827-0.7527466,123.9978333,3.8903503
		c-6.5634766,1.8220215-41.4005127,12.1422577-50.3841248,28.4844513
		c-0.0422668,0.0632935-4.5727234,6.1274109-6.3809204,10.9393311c-0.1897888,0.5135193-0.4290466,1.1396484-0.6962891,1.8431396
		c-2.3777161,6.2540588-6.8097534,17.8968811-6.2541504,20.9570618c0.598053,3.2853394,2.3990173,11.3895569,2.4199829,11.4739685
		l0.0704041,0.3165894l3.3627319-0.478363l-0.1197205-0.3939514c-0.0140686-0.0632935-1.899231-6.5001831-0.2320251-10.8549194
		l0.9636841-2.5114746c1.0834351-2.8350525,1.674408-4.3968201,2.2722778-5.7615967
		c0.6191711-1.4210815,8.4068909-12.7895203,10.8900757-16.4054871c-0.2954102,3.7003784-0.8934631,14.0558167,1.0411682,19.2475586
		c2.3358154,6.2540894,13.2609253,17.5099792,13.6971741,17.953186c0.0704041,0.0985718,7.2178345,9.5957642,9.0890808,12.951355
		c1.1045227,1.9697571,3.0812073,4.0661621,4.8258667,5.9093018c1.3015442,1.3789063,2.5326538,2.6803284,3.1236267,3.6511536
		c1.3929138,2.2863464,11.0659485,16.9471741,11.1856689,17.1300964l18.902771,21.864563l2.012085-3.1375732l-0.1899719-0.2040405
		c-6.5145264-6.9997559-19.0436096-20.8937683-19.8173523-23.3841248
		c-0.7951965-2.5255127-5.789917-10.5523987-8.4771423-14.8648376c-0.7387085-1.1818542-1.2663269-2.0401001-1.3999329-2.2792969
		c-0.12677-0.2321777-0.6121216-0.9567566-1.414032-2.1667786c-3.151825-4.7485657-10.5453796-15.8778687-12.2268066-21.0907288
		c-0.9637146-2.9827576-2.230011-6.1696472-3.3486328-8.9836121c-1.2944946-3.2572021-2.4129333-6.0641174-2.4622498-7.1051941
		c-0.007019-0.1548767-0.0211182-0.3447876-0.0351868-0.5628662c-0.1618042-2.56073-0.5908203-9.3564758,2.560791-12.9584045
		l0.2954102-0.3376465c3.6651917-4.1928406,10.4751282-11.9944763,20.0846252-16.4547424
		c2.6946106-1.2521362,5.3607178-2.5536804,7.9356079-3.8199463c6.1133118-2.9898682,12.423645-6.071167,13.4436646-5.4450531
		c1.1186218,0.6964569,3.2150269,4.3546295,3.0671387,6.176712c-0.0491333,0.5838623-0.3163757,0.6964417-0.4079285,0.7315979
		c-0.6191406,0.2674255-1.9697876,0.4080505-3.6792297,0.5909729c-3.3204956,0.3587341-7.8722534,0.8441467-11.9032593,2.6310425
		c-4.5586243,2.019043-20.6263123,10.3202515-20.9076233,11.7061157c-0.0354004,0.1899414-0.12677,0.4783936-0.2322083,0.7879333
		c-0.344696,1.0482178-0.7387085,2.230072-0.1829224,2.7999573c0.2883606,0.2883606,0.7527771,0.3305664,1.3717957,0.133606
		c1.9486694-0.618988,12.5855713-4.2350464,14.9985352-5.058075c-0.0422668,1.3295593-0.0281677,4.8822021,1.0552368,7.3796082
		c1.0904236,2.5185242,3.988739,6.7535095,5.0087891,8.2027283l-12.1000671,1.0834045l0.2533264,3.4963379l0.337677-0.0070496
		c0.1477051-0.0069885,15.047821-0.3939514,23.3700256,0.3939514c7.0208435,0.6753845,11.0941162,0.9989929,12.2336731,1.0834656
		l-0.7034912,31.3546753l0.4221802-0.0774231c0.3728638-0.0632019,3.6651611-0.6964417,4.0028381-2.4903564
		c0.1126709-0.61203,0.1337891-1.4351196,0.1549072-2.3988953c0.0350342-1.6180725,0.077301-3.6300354,0.6330872-5.1847534
		c0.7807922-2.166687,4.7203979-15.7301331,3.9324036-20.3731689l23.2294006,0.1055298v-4.0310364l-0.3586426,0.007019
		c-1.8713989,0.0351868-4.038208-0.0281067-4.7557983-0.1899414c0.93573-1.3577576,6.4441528-7.5343933,9.9475098-11.3825378
		l0.260376-0.2883606l-3.2783813-2.4270935l-14.175354,14.8858948l-7.6893005-0.1828613
		c1.688324-2.2441711,7.5202942-11.0941162,6.7043152-24.6293335l8.5825806,0.20401l-0.7174072-4.4039001l-0.267395-0.0281067
		c-0.4360962-0.0421448-10.1374512-0.9849243-11.7835083-1.0904236c-0.2531738-1.1818542,0.0772705-8.0409241,1.7235107-11.3614349
		c0.4996338-1.013031,1.0552368-1.5899048,1.6603394-1.7235718c3.4963379-0.7808685,11.7130737,1.3788757,11.7903442,1.3999939
		l0.2463379,0.0632935l0.1408081-0.2039948c0.0422363-0.0703735,1.1254883-1.6884155,0.6612549-3.1304779
		c-0.2392578-0.738739-0.8230591-1.2804413-1.737793-1.6181183c-1.2592773-0.464325-3.9112549-0.9497375-9.4196777-0.6401978
		c0.126709-1.6321106,1.1677246-8.9343719,2.0965576-15.4487c0.9776001-6.8168488,1.9837036-13.8729095,2.1243896-15.6105194
		c0.2460938-3.0742645,0.8513794-5.4802399,1.0341187-6.1625671c3.0180054-0.6612549,7.3234863-1.1256561,7.8510742-0.1336212
		c0.3024902,0.5698242,0.4854126,1.793808,0.675354,3.0952606c0.3726807,2.5536804,0.7668457,5.198822,2.300415,5.4309845
		c0.140686,0.0140839,0.3586426,0.0070496,0.5698853-0.1899567c1.6179199-1.5124817,0.5626831-15.8286133,0.3304443-18.6425781
		c0.0422363-1.2521973,0.9990845-30.6582336-0.2179565-33.9998322c-1.203125-3.306427-2.9898682-31.0944214-2.694397-38.4529877
		c0.3026123-7.457016-1.9907837-20.6122742-4.2349243-27.7598801c-1.0483398-3.327507-2.6452637-10.2076569-4.0523071-16.2717667
		c-2.968689-12.7754745-3.1866455-13.2186737-3.7213135-13.2186737c-0.9568481,0-2.961853,1.111618-3.0673218,4.5586624
		c-0.0913696,3.1445999,0.1968384,23.2012558,0.9144287,27.6050949c0.6754761,4.1576233,1.4210815,15.9481888,0.6965942,21.8083038
		c-0.2251587,1.8220215-0.4151001,4.6711655-0.6541748,8.2800903c-0.534668,7.9283905-1.2594604,18.790329-3.0109863,29.7015686
		c-2.3778687,14.8296204-5.7054138,40.2468109-6.1344299,43.5252075c-2.1456909-0.2885437-13.5211487-1.808075-17.4538879-2.2161102
		c-0.4713135-0.0492554-1.1535034-0.1266327-2.0189514-0.2251282c-7.140564-0.8019409-26.1135864-2.933548-35.3012695-1.5828552
		l-0.1195374,0.0422058c-0.0563354,0.0282135-1.4069824,0.7879486-1.5126038,1.9205627
		c-0.0561829,0.5979614,0.2322083,1.1607361,0.8582153,1.6743164c1.9979858,1.6321106,11.0872498,2.8492279,27.1690369,4.5235138
		c13.5704041,1.4139862,24.9949646,1.322525,27.2392578,1.2873535c-0.5487671,5.430954-1.8430786,12.9513092-3.1236572,13.4085846
		c-1.9766846,0.7035065-16.0817566-2.026062-19.2825317-3.1657104c-3.1729431-1.1326599-24.7981567-3.1024323-25.7128906-3.1868439
		c-0.471283-0.0422211-46.9369202-4.4531403-63.1876831-4.896347c-14.2879944-0.3939514-49.7933044-0.9918976-70.7644958,1.9627838
		c-2.6874084,0.3728333-5.1285095,0.7457428-7.3515015,1.0833588c-0.6823425,0.105545-1.350647,0.2040405-1.9979858,0.3025055
		c-9.2719727,1.4281158-14.379364,2.2161102-16.264679,0.6401978c-0.6261902-0.5276184-0.9356995-1.3507385-0.9638672-2.5958862
		c-0.0984192-3.8481445-0.2322083-9.1172943,0.9779663-10.2710419c0.1758728-0.1688232,0.3658142-0.2321167,0.6048889-0.2180786
		c1.885498,0.133667,11.1293335,0.879364,12.9514465,1.0271149c0.0843201,2.0893555,0.5697021,9.0680389,3.0039368,9.3705902
		c0.555603,0.070282,1.0339355,0.1195374,1.434967,0.070282c0.323761-0.0422058,0.598053-0.1477051,0.8091125-0.3587799
		c0.5839844-0.5908813,0.4853821-1.7587433,0.1125183-4.4812622c-0.4572144-3.2993774-0.0281677-4.2350006,0.0843201-4.4249573
		l63.9476929,0.7527924c0.4783325-0.0141296,47.8023682-1.8009949,52.1007996-1.210083
		c2.8773499,0.401001,7.2178345-0.2180786,10.3835449-0.6682739c1.6110535-0.232132,3.0039368-0.4362183,3.4963684-0.3799286
		c0.4642334,0.0422211,0.6893921-0.1758728,0.7809448-0.3024902c0.1899414-0.2814178,0.1686707-0.6894073-0.063385-1.146698
		c-0.6260376-1.2451935-2.5185547-2.6239777-5.191864-2.7225189c-4.1787109-0.1477509-63.0331116-0.745697-63.6239319-0.7527466
		l-62.9697266-0.9004517c0-2.9757996-0.0211487-24.2705231-0.3024597-33.7324371
		c-0.2954102-10.1233826,2.3847656-64.9958878,2.4129333-65.5516357l1.6532898-44.5663528
		c0.0351868-0.1617889,3.3204651-16.3421478,3.7706299-20.3801079c0.0704041-0.6402893,0.1758728-1.4351978,0.2955627-2.3145638
		c0.7526245-5.7545738,1.2311096-10.2217426-0.0140686-11.0448608c-0.2181396-0.147707-0.5839539-0.2532482-1.1115723,0.0492496
		c-1.8501282,1.0904064-4.0801392,7.2811852-6.0430908,12.747303c-0.89328,2.4692707-1.6601257,4.600832-2.2370605,5.7968235
		c-1.4562683,3.0390549-5.1003113,18.6777077-7.7593689,30.1024399c-0.668457,2.8703537-1.2733765,5.4662476-1.7587585,7.5062637
		c-2.3919678,10.0037079-7.0491638,45.9522171-7.0912476,46.3180542c-0.0281677,0.2180786-2.5817871,22.0193481-4.375885,36.0259247
		c-1.7094421,13.4226379-0.1688232,55.3790131-0.0140991,59.4382324
		c-7.3233032,1.1114807-15.3500977,1.7164764-15.7441101,0.7737732c-0.4503174-1.0904083,0.4221802-9.1665039,1.2663269-16.9753113
		c0.4924316-4.5515289,1.0059509-9.2578583,1.3224792-13.1623383c0.8936462-10.8760223,4.4884033-43.532196,4.5234375-43.862854
		c0.0352173-0.3728333,3.4683533-36.7855911,3.7637634-38.4106598c0.1406555-0.7739563-0.1688538-1.13974-0.5065002-1.2241592
		c-1.1677551-0.2884521-2.891449,2.4833145-4.389801,7.0771484c-1.1888733,3.6441803-3.0461731,11.4106445-5.0089417,19.6344986
		c-2.0823364,8.7233276-4.2419434,17.7421265-6.0006714,23.6444092c-2.7578125,9.2368774-5.2341309,27.4010925-7.0349426,40.6689758
		c-0.4714355,3.4471283-0.8934326,6.5706482-1.2662964,9.1243286c-0.204071,1.3858643-4.9104004,33.9014587-0.401062,35.9485168
		c3.5386047,1.6110229,38.5726318,2.0401459,39.9514465,1.3507385c0.260376-0.133667,0.5205688-0.2955017,0.7879944-0.464325
		c1.2450256-0.7808685,2.4199829-1.5195313,4.8540344,0.5698242c2.6240234,2.2441406,4.1014404,4.256134,3.9465027,5.3676605
		c-0.0491028,0.3587952-0.281311,0.6331635-0.7034912,0.8301239c-1.0552368,0.4924469-12.4869995-0.2883759-22.5750122-0.977829
		c-11.0168152-0.7527466-21.4143066-1.4703217-23.3348083-1.0060425c-2.3004456,0.5488434-2.3990479,1.8994446-2.3356628,2.4552307
		c0.1547546,1.2873688,1.5194702,2.4551849,2.8701477,2.4551849c1.5337219,0,2.4692688-0.3095398,2.9125366-0.5065308
		l5.1494751,6.8238983c-1.5406189-0.4642944-4.2137451-0.9778748-5.058075,0.7175751
		c-0.7667236,1.5336456-0.7598572,3.8058929,0.0212708,5.0721588c0.3517456,0.5628357,0.8158264,0.8583374,1.3434448,0.8583374
		c1.3437805,0,8.8359375-0.5698853,10.7495728-0.7176208c-0.2885437,2.3496704-1.4351501,13.8799133,1.9064636,26.9859924
		l-3.6371765-0.1336365L264.0719299,274.0042419z M512.3490601,267.5181274
		c0.9707642,2.6872559,2.3707275,9.3141785-3.4190369,16.5390625
		C509.8023376,280.7437134,511.8142395,272.7168579,512.3490601,267.5181274z M473.129303,275.5941467l-0.3235779-4.4390564
		l4.3334656-1.681366c-0.0070496,0.7316589-0.063385,2.1175232-0.3658447,3.2361145
		C476.4356689,273.9409485,474.1141052,275.1860962,473.129303,275.5941467z M499.1163025,289.4318542
		c0,0.1055298-0.0351868,0.196991-0.1126709,0.267334c-0.0702209,0.0703735-0.1758728,0.0984802-0.2601929,0.0984802
		c-2.6942749-0.1617432-11.7905579-0.745697-15.9201355-1.5124817c-3.7495117-0.6894531-6.5635071-5.1425476-7.5975952-7.0279236
		c-0.3024597-0.541687-0.2322083-1.1959229,0.1547241-1.5898743c0.4292297-0.4291687,1.0973206-0.4713745,1.9839172-0.1266479
		c0.8300781,0.3236084,1.5335693,1.1326294,2.3426819,2.0682678c1.6742249,1.9276123,3.9606018,4.5657043,9.3352051,5.3395386
		c5.4381714,0.7738037,8.3503723,0.2954407,9.6096497-0.0633545c0.1126709-0.0351563,0.2322083-0.0069885,0.3235779,0.0633545
		c0.0563354,0.0351563,0.1408386,0.1266174,0.1408386,0.2814026V289.4318542z M496.1194153,280.4482727
		c2.3004456-1.0693359,4.2771301-3.032074,5.5013733-5.3817444c-0.5066528,2.8632202-2.1176758,7.428894-7.1967163,8.9343567
		c-6.9717407,2.0541992-11.2912903-3.5877991-12.0720825-4.720459c0.4644165-0.7527466,1.885498-3.3908386,0.2813416-4.9877319
		l-2.0751038-2.0753174c0.0420837-0.5979614,0.2954102-2.828064,1.6460571-3.9043884
		c0.6190186-0.4924622,1.3999634-0.6824036,2.3215637-0.5698242c-0.3728638,1.885437-1.6603088,10.2358398,3.8972168,12.7683716
		C490.9134521,281.6512146,493.5797424,281.6302185,496.1194153,280.4482727z M484.9971313,243.0645905
		c1.9487,0,2.9407349,2.3566895,3.1798096,3.0039368c-1.8643494,2.4622192-16.2505798,7.428894-22.5961304,9.4408722
		c3.2220764-7.0419769,16.3912659-11.7694397,18.7762146-12.3603973
		C484.5820313,243.0927124,484.7932739,243.0645905,484.9971313,243.0645905z M300.5552063,165.4903259
		c0.7246094-12.592514,4.9455872-26.7890167,6.5777283-31.8823395c0.1545715,7.3515167,0.7666931,31.8401337,1.9978027,38.1856537
		c0.2251892,1.1748199,0.5066833,2.5466461,0.80896,4.0450897c1.336731,6.6198578,3.8200989,18.9309998,2.7789307,19.8174133
		c-0.6893921,0.5768585-5.0512085,0.780899-11.3756104,0.5205688c-0.7807617-0.0281219-1.4069824-0.6682739-1.414032-1.456192
		C299.8798828,190.1056061,299.837616,178.0336304,300.5552063,165.4903259z M317.4108887,284.8239746
		c-1.9134827,0.464325-6.1978149,0.9356689-10.8196411,1.3789368c-1.7939453,0.1687622-3.6442261,0.3375854-5.4241028,0.4994202
		c-4.9946899,0.4501953-9.3071899,0.8441467-10.3554077,1.1396484c-0.0563354,0.0140381-0.1406555,0.0210876-0.2672424-0.063324
		c-1.336731-0.9004517-2.5115051-7.5274048-2.9968872-11.8538513c0.4290466-0.5205688,2.4058838-2.7225342,4.1928101-1.7095032
		c0.6119385,0.3447266,0.8230286,1.3858643,1.0974731,2.6943665c0.5908203,2.8632202,1.4842834,7.1827698,8.0058594,8.4489746
		c2.1243896,0.4150696,4.0167542,0.4572754,5.6911621,0.2744446c4.2279968-0.4644165,7.0419617-2.3849487,8.6318665-3.4682922
		c0.4080811-0.2814331,0.879364-0.5979919,1.0200195-0.6190491c0.6330872-0.0914001,2.3356628,0.7175293,3.4682007,1.2521667
		c0.5628052,0.2602844,1.0481873,0.4924622,1.3437805,0.5910339c0.1195374,0.0421143,0.1968079,0.077301,0.2390747,0.1054688
		C321.0691833,283.6562195,320.3514404,284.1134338,317.4108887,284.8239746z M287.6812439,261.0388489
		c0-0.0140381,0.0140686-0.0422058,0.0774536-0.0773621c0.1265869-0.0633545,0.3094788-0.0914612,0.5344849-0.0914612
		c1.0552368,0,3.0534058,0.5909424,4.4603882,1.1115112l-1.7659607,3.0179749
		c-0.5698547,0.1195984-2.4058838,0.5909729-3.3766174,1.8361206
		C287.5264893,264.6829529,287.477356,261.8056641,287.6812439,261.0388489z M298.3672485,274.1238708
		c0.9356995,2.6802979,3.2150269,4.3968201,6.408905,4.8470154c2.8351135,0.3939514,5.7897644-0.2883911,7.3303528-1.2873535
		c-0.5065002,1.6461487-2.2581787,4.7344971-8.1465149,4.5164185c-7.3935547-0.267334-8.8357544-7.3725891-9.0116272-8.49823
		c0.5276184-0.7315063,2.9335327-4.4601135-0.0140686-7.9072571c0.0913696-1.5406494,0.3024597-3.2993774,0.5135193-3.8480835
		c2.6874084-0.0703735,5.1705933,0.1969604,5.3746338,0.5698242c-0.0563354,0.20401-0.3235779,0.5768738-0.6401062,1.013031
		C298.8807983,265.3302002,296.4608154,268.6928711,298.3672485,274.1238708z M315.1386108,272.8997498
		c0.0704346-0.3095093,0.3728638-0.9919128,0.618988-1.554657c0.4573669-1.0342102,1.0130005-2.3004761,1.1888733-3.3486938
		c0.7598267-0.063324,1.758728-0.0140686,2.0402222,0.2674255c0.1547546,0.2673035-0.0843201,1.9908142-1.1115723,3.3626099
		C317.3335876,272.3439941,316.4260559,273.131897,315.1386108,272.8997498z M326.6758423,268.9179993
		c1.8713989,2.0612183,2.019104,9.7363586,1.8080139,10.4116821c-0.0563354,0.1125793-0.1547241,0.330658-0.2883606,0.6190796
		c-0.4431152,0.9849243-1.3647461,3.0250244-1.9346008,3.7425842c-0.4151306,0.5205994-1.4210815,0.2252197-1.9277344,0.0281372
		c0.3237305-0.8089905,1.0552368-2.9335632,0.5769043-4.4882813c-0.196991-0.6472168-0.7105408-1.4070129-1.3084106-2.2793274
		c-1.1115723-1.6461487-2.5044556-3.6933289-2.0963745-5.6349792c0.3376465-1.5969238,1.3788147-2.8562012,2.6520081-3.2079468
		C325.0788879,267.8627319,325.9723511,268.1511536,326.6758423,268.9179993z M284.9797668,256.1636353l-7.4851074-8.2449188
		c16.2437439,0.2391663,40.0357666,0.8019562,41.6467896,1.4069824c0.6471558,0.9286194,4.326416,8.7374725,5.2832336,10.9956207
		c-1.6743774-0.4432068-6.2962341-1.6954346-8.6177979-2.3567505c-0.7105103-0.2039795-1.3717651-0.3517456-2.026123-0.4572449
		c-7.6750793-1.2311096-15.8918152-1.4984436-21.6042786-1.4984436
		C288.3635864,256.0088806,285.6622925,256.1285706,284.9797668,256.1636353z"/>
	<path d="M166.7225494,374.6530762c0.2883759,7.3586731,0.5627441,14.309082,0.7737427,16.9682922
		c0.4503326,5.6913452,4.3546753,34.8792114,5.7335815,42.244812c1.4210663,7.562561,11.9453125,36.2932434,14.2527924,38.9102478
		c2.194809,2.4833069,9.954361,23.7921143,10.0318298,24.0101929l0.6753235-0.1828613c0,0-2.863266-15.6809082-3.9185028-21.5549622
		c-0.9848328-5.5084534-1.7516937-18.6004028-2.1034393-28.1397705c-0.0493011-1.4351807-0.1406708-3.3065186-0.2462158-5.4310608
		c-0.464325-9.5463867-1.2381592-25.5297852,0.2250824-29.560791c1.4914856-4.108429,2.5608215-12.7191772,2.9125671-15.8355713
		c0.6401062,1.2380676,1.6390228,3.3274231,1.8360138,4.5585327c0.372879,2.3497009,1.2733612,7.0209045,2.2793121,9.6238098
		c0.9004974,2.3075256,9.2510529,33.3737488,12.3886108,45.0728455l1.1679077,4.3335571
		c0.7103577,2.638092,3.4752197,11.2839966,6.4016876,20.4365234c3.2150116,10.059906,6.5353088,20.45755,7.0138092,22.5187988
		c0.8723297,3.7777405,21.5197601,49.4344482,27.9216309,61.140625
		c6.1203461,11.199585,27.8513641,39.5574341,28.0693207,39.8459473l0.2181396,0.2883301l3.8410339-3.1375122l-0.1617737-0.267334
		c-0.2390747-0.3869019-23.8413391-38.875-27.9989319-54.4785767c-3.8623352-14.4849243-5.4802399-34.2390137-4.7276154-36.6308289
		c1.0342865,1.3506165,5.417038,8.5614319,10.0459137,16.1732483c5.6349792,9.2649536,12.0227661,19.7751465,13.6619568,21.8294067
		c1.5124512,1.885376,1.4701843,4.6149292,1.427948,7.5063477c-0.0420837,2.6731567-0.0843506,5.4449463,1.0974731,7.8016357
		c1.554718,3.1165161,20.6053772,5.4661865,47.3522034,8.4349365c11.072998,1.2310791,21.5270081,2.3918457,27.9709473,3.5174561
		c19.2545166,3.3626709,37.0036621,2.9476318,80.5852356,0.007019c44.1583252-2.9898682,77.5460815-14.3794556,77.876709-14.4919434
		l0.2251587-0.0773926l0.0140991-0.2391968c0.2109375-3.6791992,5.1071777-90.2652893,3.5947876-94.4933167
		c-0.4854126-1.3717651-1.0975342-2.0612183-1.8641968-2.1104736c-1.3015747-0.0984497-2.286377,1.8501892-2.3777466,2.0331116
		c-0.1899414,0.3024902-19.1210938,29.9618225-31.910553,42.7513428
		c-13.1200867,13.1130981-50.8976746,38.3122559-66.1777039,42.7231445
		c-16.3351135,4.7063599-36.6943359-1.3295898-75.11203-22.2866821
		c-39.8669434-21.7449646-54.724823-42.9623718-56.5258179-47.4577026c-0.618988-1.5476379-1.3083801-2.3003845-2.1245422-2.3144836
		c-0.0068665,0-0.013916,0-0.013916,0c-1.2311096,0-2.0402527,1.8009644-2.1245728,2.0049438l-0.0281677,0.0703735v57.6653748
		c-13.2045898-21.6113281-25.797226-105.6506958-27.0422516-116.4282227
		c-1.0413361-9.0257874-6.0078735-77.0396118-5.7265472-81.0354309c0.1197205-1.5969238-0.0984039-9.4830933-0.4010315-20.4013367
		c-0.4994507-18.1008606-1.1818237-42.8919373-0.8019104-55.9558716c0.5980377-20.6193085,2.391983-66.3605804,2.4129333-66.8178253
		l0.0281677-0.7809143l-0.6049042,0.4924622c-7.288269,5.9867401-11.6710205,29.8704071-14.020752,42.7020721
		c-0.6681213,3.6300201-1.1957397,6.5002747-1.5687866,7.7736053c-1.6953583,5.7967834-6.4439392,55.8292389-6.6479797,57.9608612
		l-3.9185028,48.5269775l-3.6088409,28.9628601l-4.6360931-15.9270935
		c-0.0772858-0.3799133-7.3514709-38.5654602-8.5473785-45.2206116c-1.1256561-6.3173523-1.9064331-34.4570923-2.1597748-43.7010193
		l-0.0422516-1.4702759c-0.1195374-4.3616333,1.4915009-6.4298706,2.5608215-7.7946472
		c0.6542053-0.8372498,1.1679077-1.4985352,0.6964569-2.2301331c-0.2040405-0.3236389-0.4924164-0.5135803-0.844162-0.5487671
		c-1.2311249-0.140686-2.9548187,1.5265808-4.9667053,3.4682312l-0.5557861,0.534668
		c-1.723526,1.6531982-5.5786591,14.7944946-9.3845062,28.1116333c-0.9217072,3.2501221-1.6532745,5.8178406-1.9558105,6.6972351
		c-1.2099152,3.5174561-4.9877472,45.5302124-5.1495361,47.3451538
		c-0.2674255,12.5221863-0.9989929,32.4169617-1.8854065,35.4138489c-1.3648224-3.1093445-5.16362-24.55896-6.6410217-32.8812866
		c-0.4009552-2.2722778-0.6964569-3.9395447-0.8230438-4.6078796c-0.6894073-3.5456238-1.1958923-20.8234558-1.2029419-20.9922791
		l-0.0070343-0.2391663l-2.9687347-1.1326599l-0.0773621,0.4080505c-0.1407623,0.668335-3.3205566,16.5602722-2.7226105,24.0665283
		C166.0120239,356.7773438,166.3708038,365.8594055,166.7225494,374.6530762z"/>
	<path d="M656.0517578,609.0079956c-0.133606-0.1195068-0.3095093-0.1547852-0.4926147-0.1195068
		c-1.625061,0.3797607-6.2468872,11.0236206-15.673645,33.5424805c-6.739563,16.0888672-14.3793945,34.3234253-16.5321045,35.906311
		c-4.5304565,3.3205566-37.9254761,17.7490845-43.9401855,20.1552124
		c-6.057373,2.4199829-48.710083,11.2418213-62.3718872,13.8517456
		c-14.2246094,2.7224731-44.9744873,4.5163574-46.9441223,4.5163574c-1.8571472,0-54.7177734,3.2923584-70.2930298,5.4309082
		c-11.0731812,1.5197144-31.2352295,1.4703369-44.5805054,1.4422607c-5.1848145-0.0140991-9.2720032-0.0211182-11.4667969,0.0633545
		c-4.3618164,0.1688232-15.0337524-0.8161011-24.4536133-1.6743774c-7.5414429-0.6894531-14.6679382-1.343689-17.7420959-1.343689
		c-6.7816162,0-60.7185974-10.5101318-69.5333862-13.5493164c-5.3816681-1.8571777-7.6609802-3.6088867-9.6658325-5.1495361
		c-1.2451935-0.956665-2.4199829-1.8641968-4.1647949-2.6732788c-1.3154449-0.6120605-5.0721741-2.1525879-9.8348389-4.0942383
		c-11.0307312-4.5025024-29.4904022-12.0439453-31.3688354-13.9292603
		c-1.1607056-1.1607666-2.7786865-4.4882813-4.6500092-8.3504639c-2.4622192-5.0651855-5.2410736-10.8056641-8.29422-14.5341797
		c-4.7696991-5.8319702-17.5732574-44.00354-20.0918121-51.5942383c-0.1829224-0.541687-0.6190033-0.9567261-1.1747894-1.0974731
		c-0.5628204-0.1477661-1.1466064,0-1.5687714,0.3869019c-0.3587952,0.3306885-0.5557861,0.7949829-0.5487518,1.2733765
		c0.1265869,6.5987549,0.7808685,39.6137085,1.0552521,42.0970459c0.3024445,2.7154541-0.9145813,41.9985962-1.0552521,45.7763672
		c-0.1547394,4.0380249,1.8712311,59.7617798,1.9557343,62.1325684l0.0070496,0.1968994l0.1758728,0.0985718
		c0.6823578,0.3728027,1.3928986,0.4008789,2.1175232,0.0843506c5.3534851-2.3706665,10.636734-24.7347412,12.8878784-34.288208
		c0.3869629-1.6391602,0.7316589-3.102356,0.9004974-3.6652222c2.3567657,0.802002,18.4386292,7.4500122,26.2966766,11.9382935
		c3.6300507,2.0752563,9.7785034,6.0993042,16.2930298,10.3624268c8.5824127,5.6138306,17.4535522,11.4176636,21.4211731,13.3171387
		c6.5284424,3.1235352,30.0602875,15.3221436,33.7254639,17.7632446
		c3.777832,2.5184326,27.0917053,12.4799805,32.4311218,10.4398193c3.2852478-1.2592773,4.3827515-0.8019409,6.0430603-0.1054688
		c0.8512268,0.3587646,1.822113,0.7667847,3.2641602,1.0270996c1.6673584,0.2954102,2.7155457,0.1899414,3.29245-0.3377075
		c0.611969-0.5628052,0.5417175-1.4350586,0.4783325-2.2020264c-0.0211182-0.2319946-0.0422363-0.4572144-0.0422363-0.675293
		c0-0.1900024-0.0352173-0.3588257-0.0915527-0.5065308c-0.4290466-1.076355-2.2581787-1.3999023-4.3475342-1.7728271
		c-0.5628357-0.0983887-1.1395874-0.2040405-1.7164917-0.3234863c-2.7857971-0.5840454-4.8401184-1.8994751-8.6248474-4.319519
		c-1.1325073-0.7245483-4.2068787-2.4902954-7.7666016-4.5375977c-6.1485291-3.5315552-16.0254211-9.2015991-18.3190002-11.0095825
		c4.7626648,1.0341187,27.9710999,10.4538574,30.9116516,13.6688232c1.7376099,1.8994141,5.7122803,4.3547363,10.671936,6.3807373
		c4.3757324,1.7939453,9.5183105,3.243103,14.5763855,3.6792603c5.395752,0.4642944,8.976593,1.3014526,12.1423035,2.0471802
		c2.9055176,0.682373,5.4168701,1.2662354,8.3926392,1.2662354c2.4692688,0,3.5737915-0.2391357,3.9255371-0.8511963
		c0.3235779-0.5487671-0.0281677-1.1677246-0.4362488-1.8853149c-0.274292-0.4783325-0.5908203-1.0271606-0.7385254-1.618103
		c-0.3799133-1.5405884-6.6972656-5.5997314-11.8961792-8.7162476c2.2581787,0.8933716,4.5658264,1.617981,6.1273804,1.617981
		c1.2733765,0,4.790863,1.3999023,8.8641052,3.0180054c8.4489746,3.3627319,18.966156,7.5484619,22.6876831,5.0792236
		c1.5687561-1.0411987,1.6110229-2.3145752,1.3648987-3.2008057c-0.4291992-1.5477905-2.0543213-3.1306763-3.6090088-4.2913818
		c2.4481506,0.0704346,5.9092712-0.3517456,9.2860718-0.7668457c3.3063965-0.40802,8.3012695-1.0270996,8.5686951-0.3798218
		c0,0,0.013916,0.1547241-0.3728943,0.541626c-6.4650574,6.4651489-5.9728088,7.4500122-5.8110352,7.7736206
		c0.1056519,0.2181396,0.3589783,0.4502563,0.9850159,0.3658447c1.076355-0.1547852,10.3905945-2.5466309,19.3953552-4.854126
		c6.6127625-1.6954346,13.9503479-3.5737305,16.7711792-4.2420044c-2.6872253,1.9134521-10.3833923,6.6691284-11.2768555,6.894165
		c-0.4080811,0.1055298-0.3376465,0.4432373-0.33078,0.4572754c0.0563354,0.2883911,0.0845032,0.40802,2.7435608,0.40802
		c1.7940979,0.0140991,4.1086426-0.0703125,6.5145264-0.2109985c4.8962708-0.2954712,12.6276855-0.9918823,21.6674805-2.6803589
		c9.1385193-1.7023926,25.6142883-6.0289917,37.8270264-9.3565063c7.1333618-1.9416504,13.3734131-3.7003784,17.3480835-4.8328857
		c1.9414978-0.5487671,3.3766479-0.9568481,4.4390869-1.2592773c-2.1458435,1.350647-5.1356812,3.3345337-7.35849,4.8469849
		c-9.2158508,6.2611694-9.1244812,6.6972656-9.0610962,6.9857178c0.0279846,0.1407471,0.1758728,0.3588257,0.5205688,0.3025513
		c1.5265198-0.2533569,34.815918-9.2509766,39.8951111-11.7905884c4.2561646-2.1315918,36.2369385-11.9875488,43.0117188-14.0628052
		c-2.3920288,2.6029053-8.2310181,9.307312-7.288269,11.5092163c0.1477051,0.3586426,0.534668,0.7808228,1.5055542,0.7808228
		c5.2761841,0,46.7680664-28.8220825,53.0151978-35.2802734c0.7950439-0.8300781,1.9416504-1.9626465,3.3977661-3.4047852
		c9.7645874-9.6730347,30.0884399-29.8141479,33.7749023-42.9765625
		C646.9906616,666.3568115,658.7462158,611.3646851,656.0517578,609.0079956z"/>
	<path d="M515.5247803,408.3036499c-4.2029419,13.1323242-8.344574,26.2843323-12.5940247,39.4013977
		c-0.9467163,2.9219666-2.2315674,5.734314-3.3994751,8.6953125c3.7309265,1.0823059,4.70047-1.7234497,6.0913086-3.7366333
		c6.0400085-8.7430725,12.0186462-17.5284729,18.0509338-26.276825c3.6165771-5.2446899,7.2908325-10.4494934,11.2406006-16.1037598
		c0.1154175,0.9718933,0.2275391,1.3977966,0.2071533,1.8171692c-0.6025391,12.2776489-1.0678101,24.5644531-1.8666382,36.8294983
		c-1.2264404,18.8361206-0.479187,37.6664124-0.3530884,56.5051575c0.0552979,8.2835388-0.3462524,16.6509705-1.5038452,24.8442078
		c-2.1038208,14.8903809-4.9536743,29.6746826-7.3922119,44.5197144c-0.1616211,0.9841309,0.5211182,2.1068726,0.8110352,3.1651611
		c0.7211914-0.8862915,1.7477417-1.6611328,2.118042-2.6755371c6.1325073-16.7943726,11.894104-33.7302856,18.3354492-50.4039917
		c5.9732056-15.461792,12.6376343-30.6568909,19.0491333-45.9479675c0.5085449-1.2130127,1.418335-2.2579041,2.1416016-3.3809204
		c1.7191772,10.9484558,1.0823364,21.6176147-0.0396729,32.2923584c-0.1733398,1.6470337-0.0199585,4.6936951,0.5224609,4.8227234
		c2.9083862,0.6918335,3.1625977-2.2533875,4.2626953-3.9963684c0.1669312-0.26474,0.0343018-0.7008057,0.1212158-1.0367126
		c0.9367676-3.6244812,1.8226318-7.263855,2.850769-10.8625488c3.1806641-11.1361084,6.7996216-22.1630554,9.5422974-33.4046326
		c4.0734253-16.6950073,7.5414429-33.5376282,11.269165-50.316925c0.4111328-1.8504028,0.8364258-3.6976013,1.255127-5.5462341
		c0.295105,0.026001,0.590332,0.0520325,0.8855591,0.0780945c1.0112915,4.647583,2.5522461,9.2540894,2.916687,13.9518738
		c0.6327515,8.1576538,0.93573,16.3849792,0.6624756,24.5592041c-0.4998169,14.9454346-1.539978,29.872467-2.2785034,44.8109741
		c-0.046875,0.9508667,0.5618286,1.9342041,0.8654785,2.9024048c1.0092163-0.6858215,2.5879517-1.1636963,2.9273071-2.0938416
		c1.3596191-3.7267456,2.3007813-7.6041565,3.4611816-11.4061584c1.3547363-4.4388733,3.2213135-8.7750549,4.0593262-13.3049622
		c1.1048584-5.971344,1.3726196-12.0940857,2.093811-18.1405945c1.397522-11.7174377,3.491333-23.392395,4.1381836-35.1487122
		c0.8273315-15.0368347,0.8347168-30.1415405,0.6066284-45.2080994
		c-0.3099976-20.4597168-0.9614868-40.9207458-1.8810425-61.3626099
		c-0.6294556-13.9951477,1.0648804-28.1653748-2.7598877-41.9376831c-0.2893677-1.0416565-1.4741211-1.8345642-2.2428589-2.743103
		c-0.7615356,0.9421082-1.7947998,1.7782288-2.2144165,2.8537903c-0.4954834,1.2705688-0.3031006,2.79245-0.6802979,4.1289063
		c-4.0966187,14.5234985-7.6364136,29.1481018-9.1201782,44.2212524c-0.387146,3.9326477-1.5042114,7.793396-2.2861938,11.6871338
		c-0.8202515-1.3835449-0.944458-2.649353-1.0586548-3.9160767c-1.0516357-11.6673584-1.9686279-23.348877-3.1949463-34.9977722
		c-0.9552612-9.0729065-2.0415649-18.1472168-3.5278931-27.1451721
		c-1.8839722-11.4043427-4.1768188-22.7431183-6.4703979-34.0743713c-0.2126465-1.0509491-1.6989746-1.844101-2.593811-2.756958
		c-0.6040649,1.065979-1.7865601,2.1661224-1.7259521,3.1929474c1.0930786,18.5393219-1.180603,36.9219513-2.4168701,55.351059
		c-1.1052246,16.4750366-2.2161255,32.9497681-3.3444824,49.4232788
		c-1.1188354,16.3382568-2.1776733,32.6813965-3.4224854,49.0101929c-0.972168,12.750824-2.5874634,25.4070435-6.9494629,37.5455017
		c-0.586853,1.6331482-1.0151978,3.3231812-1.5170288,4.9868469c-0.7234497-1.1737976-0.9730225-2.2060547-1.0142212-3.246582
		c-0.3847046-9.70755-0.9938965-19.4156799-1.0255127-29.1253357c-0.0374756-11.4681091,0.6311646-22.9379272,0.6292725-34.4069214
		c-0.001709-12.0590515-0.5736084-24.1173401-0.6296387-36.1771851c-0.0367432-7.953125,0.5960083-15.908905,0.5769043-23.8626709
		c-0.0325928-13.5743103-0.3323364-27.1481628-0.5552368-40.7216187c-0.0151367-0.9196472-0.1362305-1.9378357-0.5593872-2.7200317
		c-0.364624-0.6735687-1.2617188-1.5203094-1.8674927-1.478653c-0.6715088,0.0462036-1.6621704,0.9096832-1.8492432,1.5978851
		c-0.78302,2.8810883-1.4135132,5.8130493-1.9258423,8.7566528c-2.8644409,16.4574585-5.7550659,32.9109802-8.4893188,49.3902588
		c-3.0870361,18.6053162-7.0699463,36.9810791-12.9842529,54.9203796
		C524.7237549,379.3335876,520.1569214,393.8294678,515.5247803,408.3036499z"/>
</g>
<g>
	<path class="st0" d="M512.348999,267.5181274c-0.534668,5.1987305-2.5466614,13.2256165-3.4190063,16.5390625
		C514.7197876,276.8323059,513.3198242,270.2053833,512.348999,267.5181274z"/>
	<path class="st0" d="M473.1292114,275.5941467c0.9848938-0.40802,3.306427-1.6531982,3.644104-2.8843079
		c0.3024902-1.1185608,0.3587646-2.5044556,0.3658142-3.236084l-4.3334656,1.681366L473.1292114,275.5941467z"/>
	<path class="st0" d="M498.7434998,289.797699c0.0843506,0,0.1898499-0.0281372,0.2602234-0.0984802
		c0.0773621-0.0703735,0.1125488-0.1618042,0.1125488-0.267334V287.22995c0-0.1547852-0.0843506-0.2462158-0.1407166-0.2814026
		c-0.0914307-0.070343-0.2110291-0.0984802-0.3235779-0.063324c-1.2592773,0.3587952-4.1716614,0.8371582-9.6097412,0.063324
		c-5.3746948-0.7738342-7.6610413-3.4119568-9.3352966-5.3395081c-0.809082-0.9356689-1.5125732-1.7446899-2.3427124-2.0682983
		c-0.8863831-0.344696-1.5546265-0.3024902-1.9838257,0.1266479c-0.3869324,0.3939514-0.4572144,1.0481873-0.1547852,1.5899048
		c1.0341492,1.8853455,3.848114,6.3384705,7.5977478,7.0278931
		C486.9528503,289.052002,496.0491028,289.6359558,498.7434998,289.797699z"/>
	<path class="st0" d="M496.1193848,280.4482727c-2.5395508,1.1819153-5.2058411,1.2029724-7.696228,0.0632935
		c-5.5575256-2.5325623-4.2702637-10.8829651-3.8973389-12.7684021c-0.9216003-0.1125488-1.7024536,0.0773926-2.3215332,0.5698242
		c-1.350708,1.076355-1.6039734,3.306427-1.6461182,3.9043884l2.0752563,2.0753174
		c1.6040344,1.5969238,0.1828918,4.2350159-0.2814026,4.9877625c0.7808838,1.1326294,5.1003113,6.7746582,12.0719299,4.720459
		c5.0792542-1.5054932,6.6902466-6.071167,7.1967468-8.9343872
		C500.396637,277.4161987,498.4197998,279.3789368,496.1193848,280.4482727z"/>
	<g>
		<path class="st0" d="M316.9465637,267.9964294c-0.1758728,1.0481873-0.7316284,2.3144836-1.1889038,3.3486938
			c-0.2462158,0.5627136-0.5487366,1.2451172-0.6190796,1.554657c1.287384,0.2321472,2.1949768-0.5557556,2.7366028-1.2733154
			c1.0270996-1.3718262,1.2662659-3.0953064,1.1115112-3.3626404
			C318.7052917,267.9823608,317.7063293,267.9331055,316.9465637,267.9964294z"/>
		<path class="st0" d="M292.753479,261.9815369c-1.4069824-0.5205688-3.4049683-1.1115112-4.4602051-1.1115112
			c-0.2251282,0-0.4080505,0.0281372-0.534668,0.0914612c-0.0632324,0.0351868-0.0773926,0.063324-0.0773926,0.0773926
			c-0.203949,0.7667847-0.1547546,3.6440735-0.070282,5.7967834c0.9707642-1.2451782,2.8068848-1.7165222,3.376709-1.8361206
			L292.753479,261.9815369z"/>
		<path class="st0" d="M301.1672058,286.7023315c1.7798157-0.1618042,3.6300964-0.330658,5.4239197-0.4994202
			c4.6219482-0.4432678,8.90625-0.9146118,10.8197327-1.3789063c2.9406128-0.7105408,3.6582336-1.1677551,3.8270264-1.3296204
			c-0.0422363-0.0281372-0.1195984-0.063324-0.2391968-0.1054382c-0.2954712-0.0985718-0.7808838-0.330719-1.343689-0.5910034
			c-1.1325989-0.534668-2.8350525-1.3436279-3.4681396-1.2521667c-0.1407776,0.0210266-0.61203,0.337616-1.0201416,0.6190186
			c-1.5899048,1.083374-4.4038696,3.0039063-8.6318665,3.4682922c-1.6743164,0.1828308-3.5667114,0.140625-5.6911926-0.2744446
			c-6.5214539-1.2662048-7.4148865-5.5857239-8.0057678-8.4489441c-0.2744141-1.3085022-0.4854736-2.3496704-1.0974426-2.694397
			c-1.7869568-1.013031-3.7637634,1.1889038-4.1929016,1.7095032c0.4854126,4.3264771,1.6602478,10.9533997,2.9968872,11.8538513
			c0.1266479,0.0844421,0.2110596,0.0773926,0.267334,0.063324
			C291.8599854,287.5465088,296.1723938,287.1525574,301.1672058,286.7023315z"/>
		<path class="st0" d="M295.4477844,261.9463806c-0.2110291,0.5487061-0.4220886,2.3074646-0.5135498,3.848114
			c2.9476318,3.447113,0.5417786,7.1756897,0.0141602,7.9072571c0.1758728,1.1256104,1.6179504,8.230896,9.0116577,8.4981995
			c5.8882446,0.2180786,7.6399536-2.8702393,8.1464844-4.5164185c-1.5406799,0.9989624-4.4952698,1.6813354-7.3304138,1.287384
			c-3.1938782-0.4502258-5.473114-2.166748-6.408844-4.8470764c-1.9064636-5.4309692,0.5135498-8.7936707,1.815094-10.5946045
			c0.3164978-0.4361572,0.5838318-0.809021,0.6401062-1.013031
			C300.6184692,262.1433411,298.1351318,261.8760376,295.4477844,261.9463806z"/>
		<path class="st0" d="M324.1573792,268.1089783c-1.2733459,0.3517456-2.3145142,1.6109924-2.6520996,3.2079468
			c-0.4081116,1.9416199,0.9848022,3.9888,2.096344,5.6349792c0.5979614,0.8723145,1.1115112,1.6321106,1.3084717,2.2793274
			c0.4783936,1.554718-0.2532349,3.6792603-0.5768433,4.4882813c0.5065002,0.197052,1.5125122,0.4924316,1.9275513-0.0281372
			c0.5699158-0.7175598,1.4914856-2.7576904,1.9346313-3.7425842c0.133667-0.2884521,0.2321472-0.5065308,0.2884216-0.6190796
			c0.2110596-0.675354,0.063324-8.3504639-1.8079834-10.4117126
			C325.9723816,268.1511841,325.078949,267.8627625,324.1573792,268.1089783z"/>
	</g>
</g>
</svg>
